<?xml version="1.0" encoding="UTF-8" standalone="no"?>
<!-- Created with Inkscape (http://www.inkscape.org/) -->

<svg
   xmlns:dc="http://purl.org/dc/elements/1.1/"
   xmlns:cc="http://creativecommons.org/ns#"
   xmlns:rdf="http://www.w3.org/1999/02/22-rdf-syntax-ns#"
   xmlns:svg="http://www.w3.org/2000/svg"
   xmlns="http://www.w3.org/2000/svg"
   xmlns:sodipodi="http://sodipodi.sourceforge.net/DTD/sodipodi-0.dtd"
   xmlns:inkscape="http://www.inkscape.org/namespaces/inkscape"
   width="1355.4753"
   height="147.53278"
   viewBox="0 0 358.63618 39.034713"
   version="1.1"
   id="svg8"
   inkscape:version="0.92.2 (5c3e80d, 2017-08-06)"
   sodipodi:docname="TriviaPartyWhite.svg">
  <title
     id="title3803">TriviaParty Logo White</title>
  <defs
     id="defs2" />
  <sodipodi:namedview
     id="base"
     pagecolor="#ffffff"
     bordercolor="#666666"
     borderopacity="1.0"
     inkscape:pageopacity="0.0"
     inkscape:pageshadow="2"
     inkscape:zoom="0.98994949"
     inkscape:cx="611.77235"
     inkscape:cy="-26.019281"
     inkscape:document-units="mm"
     inkscape:current-layer="g3793"
     showgrid="false"
     units="px"
     inkscape:window-width="1920"
     inkscape:window-height="1017"
     inkscape:window-x="1912"
     inkscape:window-y="32"
     inkscape:window-maximized="1" />
  <metadata
     id="metadata5">
    <rdf:RDF>
      <cc:Work
         rdf:about="">
        <dc:format>image/svg+xml</dc:format>
        <dc:type
           rdf:resource="http://purl.org/dc/dcmitype/StillImage" />
        <dc:title>TriviaParty Logo White</dc:title>
      </cc:Work>
    </rdf:RDF>
  </metadata>
  <g
     inkscape:label="Layer 1"
     inkscape:groupmode="layer"
     id="layer1"
     transform="translate(-7.8017371,-43.432228)" />
  <g
     inkscape:groupmode="layer"
     id="layer2"
     inkscape:label="Layer 2">
    <g
       style=""
       id="g3793"
       transform="matrix(0.26458333,0,0,0.26458333,-16.73494,-44.088476)">
      <path
         id="path3699"
         d="m 148.27647,263.10679 c -6.87341,6.87341 -6.01423,20.74296 -6.01423,20.74296 h -34.858 c 0,0 0.73644,-13.86955 -6.01423,-20.74296 -7.487102,-6.62793 -12.27394,-16.2016 -12.27394,-26.87993 0,-19.63831 15.95612,-35.59443 35.59443,-35.59443 19.63831,0 35.59443,15.95612 35.59443,35.59443 0,10.67833 -4.66409,20.252 -12.02846,26.87993 z"
         style="fill:#ffd517;stroke-width:0.30684856"
         inkscape:connector-curvature="0" />
      <g
         id="g3705"
         transform="matrix(0.30684855,0,0,0.30684855,50.971114,166.63361)">
        <path
           id="path3701"
           d="m 300.712,417.6 c 0,6 -4.8,10.8 -10.8,10.8 h -98.8 c -6,0 -10.8,-4.8 -10.8,-10.8 v 0 c 0,-6 4.8,-10.8 10.8,-10.8 h 98.4 c 6,0 11.2,4.8 11.2,10.8 z"
           style="fill:#e5e5e5"
           inkscape:connector-curvature="0" />
        <path
           id="path3703"
           d="m 285.912,462.4 c 0,6 -4.8,10.8 -10.8,10.8 h -69.2 c -6,0 -10.8,-4.8 -10.8,-10.8 v 0 c 0,-6 4.8,-10.8 10.8,-10.8 h 69.2 c 6,0 10.8,4.8 10.8,10.8 z"
           style="fill:#e5e5e5"
           inkscape:connector-curvature="0" />
      </g>
      <g
         id="g3725"
         transform="matrix(0.30684855,0,0,0.30684855,50.971114,166.63361)">
        <path
           id="path3707"
           d="m 323.112,318.4 c 26,-23.6 40.8,-56.8 40.8,-91.6 0,-68 -55.6,-123.6 -123.6,-123.6 -68,0 -123.6,55.6 -123.6,123.6 0,35.6 15.6,69.6 42,92.8 19.6,19.6 17.6,61.2 17.6,61.6 0,2 0.8,4 2,5.6 1.6,1.6 3.6,2.4 5.6,2.4 h 113.2 c 2,0 4,-0.8 5.6,-2.4 1.6,-1.6 2,-3.6 2,-5.6 0,-0.4 -2,-42 17.6,-61.6 0.4,-0.4 0.8,-0.8 0.8,-1.2 z m -11.2,-10 c -0.8,0.4 -1.2,1.2 -1.6,2 -17.6,18.8 -20.4,49.6 -20.8,64 h -98 c -0.4,-14.8 -3.6,-46.8 -22.4,-65.6 -23.6,-20.8 -37.2,-50.4 -37.2,-81.6 0,-60 48.8,-108.4 108.4,-108.4 60,0 108.4,48.8 108.4,108.4 0,30.8 -13.2,60.8 -36.8,81.2 z"
           style="fill:#210b20"
           inkscape:connector-curvature="0" />
        <path
           id="path3709"
           d="m 240.312,135.2 c -4,0 -7.6,3.2 -7.6,7.6 0,4 3.2,7.6 7.6,7.6 44.8,0 81.2,36.4 81.2,81.2 0,4 3.2,7.6 7.6,7.6 4,0 7.6,-3.2 7.6,-7.6 0,-53.2 -43.2,-96.4 -96.4,-96.4 z"
           style="fill:#210b20"
           inkscape:connector-curvature="0" />
        <path
           id="path3711"
           d="m 308.312,417.6 c 0,-10.4 -8.4,-18.4 -18.4,-18.4 h -98.8 c -10.4,0 -18.4,8.4 -18.4,18.4 0,10.4 8.4,18.4 18.4,18.4 h 98.4 c 10.4,0 18.8,-8 18.8,-18.4 z m -18.8,3.2 h -98.4 c -2,0 -3.2,-1.6 -3.2,-3.2 0,-2 1.6,-3.2 3.2,-3.2 h 98.4 c 2,0 3.2,1.6 3.2,3.2 0.4,2 -1.2,3.2 -3.2,3.2 z"
           style="fill:#210b20"
           inkscape:connector-curvature="0" />
        <path
           id="path3713"
           d="m 275.112,444 h -69.2 c -10.4,0 -18.4,8.4 -18.4,18.4 0,10.4 8.4,18.4 18.4,18.4 h 69.2 c 10.4,0 18.4,-8.4 18.4,-18.4 0,-10 -8.4,-18.4 -18.4,-18.4 z m 0,21.6 h -69.2 c -2,0 -3.2,-1.6 -3.2,-3.2 0,-2 1.6,-3.2 3.2,-3.2 h 69.2 c 2,0 3.2,1.6 3.2,3.2 0,2 -1.2,3.2 -3.2,3.2 z"
           style="fill:#210b20"
           inkscape:connector-curvature="0" />
        <path
           id="path3715"
           d="M 247.912,58.8 V 7.6 c 0,-4 -3.2,-7.6 -7.6,-7.6 -4,0 -7.6,3.2 -7.6,7.6 v 51.6 c 0,4 3.2,7.6 7.6,7.6 4.4,-0.4 7.6,-3.6 7.6,-8 z"
           style="fill:#210b20"
           inkscape:connector-curvature="0" />
        <path
           id="path3717"
           d="m 366.312,38 c -3.6,-2.4 -8,-1.2 -10.4,2 l -28.4,42.8 c -2.4,3.6 -1.2,8 2,10.4 1.2,0.8 2.8,1.2 4,1.2 2.4,0 4.8,-1.2 6.4,-3.2 l 28.4,-42.8 c 2.4,-3.2 1.2,-8 -2,-10.4 z"
           style="fill:#210b20"
           inkscape:connector-curvature="0" />
        <path
           id="path3719"
           d="m 149.912,92.8 c 1.2,0 2.8,-0.4 4,-1.2 3.6,-2.4 4.4,-6.8 2.4,-10.4 L 128.712,38 c -2.4,-3.6 -6.8,-4.4 -10.4,-2.4 -3.6,2.4 -4.4,6.8 -2.4,10.4 l 27.6,43.2 c 1.6,2.4 4,3.6 6.4,3.6 z"
           style="fill:#210b20"
           inkscape:connector-curvature="0" />
        <path
           id="path3721"
           d="m 43.912,128.8 45.2,24.4 c 1.2,0.8 2.4,0.8 3.6,0.8 2.8,0 5.2,-1.6 6.8,-4 2,-3.6 0.8,-8.4 -3.2,-10.4 l -45.2,-24.4 c -3.6,-2 -8.4,-0.8 -10.4,3.2 -1.6,4 -0.4,8.4 3.2,10.4 z"
           style="fill:#210b20"
           inkscape:connector-curvature="0" />
        <path
           id="path3723"
           d="m 387.912,154.4 c 1.2,0 2.4,-0.4 3.6,-0.8 l 45.2,-24.4 c 3.6,-2 5.2,-6.4 3.2,-10.4 -2,-3.6 -6.4,-5.2 -10.4,-3.2 l -45.2,24.4 c -3.6,2 -5.2,6.4 -3.2,10.4 1.2,2.4 4,4 6.8,4 z"
           style="fill:#210b20"
           inkscape:connector-curvature="0" />
      </g>
      <g
         id="g3727"
         transform="matrix(0.30684855,0,0,0.30684855,50.971114,166.63361)" />
      <g
         id="g3729"
         transform="matrix(0.30684855,0,0,0.30684855,50.971114,166.63361)" />
      <g
         id="g3731"
         transform="matrix(0.30684855,0,0,0.30684855,50.971114,166.63361)" />
      <g
         id="g3733"
         transform="matrix(0.30684855,0,0,0.30684855,50.971114,166.63361)" />
      <g
         id="g3735"
         transform="matrix(0.30684855,0,0,0.30684855,50.971114,166.63361)" />
      <g
         id="g3737"
         transform="matrix(0.30684855,0,0,0.30684855,50.971114,166.63361)" />
      <g
         id="g3739"
         transform="matrix(0.30684855,0,0,0.30684855,50.971114,166.63361)" />
      <g
         id="g3741"
         transform="matrix(0.30684855,0,0,0.30684855,50.971114,166.63361)" />
      <g
         id="g3743"
         transform="matrix(0.30684855,0,0,0.30684855,50.971114,166.63361)" />
      <g
         id="g3745"
         transform="matrix(0.30684855,0,0,0.30684855,50.971114,166.63361)" />
      <g
         id="g3747"
         transform="matrix(0.30684855,0,0,0.30684855,50.971114,166.63361)" />
      <g
         id="g3749"
         transform="matrix(0.30684855,0,0,0.30684855,50.971114,166.63361)" />
      <g
         id="g3751"
         transform="matrix(0.30684855,0,0,0.30684855,50.971114,166.63361)" />
      <g
         id="g3753"
         transform="matrix(0.30684855,0,0,0.30684855,50.971114,166.63361)" />
      <g
         id="g3755"
         transform="matrix(0.30684855,0,0,0.30684855,50.971114,166.63361)" />
      <text
         xml:space="preserve"
         style="font-style:normal;font-variant:normal;font-weight:normal;font-stretch:normal;font-size:192px;line-height:1.25;font-family:'Segoe UI';-inkscape-font-specification:'Segoe UI';letter-spacing:0px;word-spacing:0px;fill:#000000;fill-opacity:1;stroke:none"
         x="199.88184"
         y="307.61874"
         id="text3807"><tspan
           sodipodi:role="line"
           id="tspan3805"
           x="199.88184"
           y="307.61874"
           style="font-weight:bold;fill:#ffffff">TRIVIAPARTY</tspan></text>
    </g>
  </g>
</svg>
